Coordinates
version=1
nRows=27
nColumns=34
inDegrees=no

Units are S.I. units (second, meters, Newtons, ...)
If the header above contains a line with 'inDegrees', this indicates whether rotational values are in degrees (yes) or radians (no).

endheader
time	pelvis_tilt	pelvis_list	pelvis_rotation	pelvis_tx	pelvis_ty	pelvis_tz	hip_flexion_r	hip_adduction_r	hip_rotation_r	knee_angle_r	ankle_angle_r	subtalar_angle_r	mtp_angle_r	hip_flexion_l	hip_adduction_l	hip_rotation_l	knee_angle_l	ankle_angle_l	subtalar_angle_l	mtp_angle_l	lumbar_extension	lumbar_bending	lumbar_rotation	arm_flex_r	arm_add_r	arm_rot_r	elbow_flex_r	pro_sup_r	arm_flex_l	arm_add_l	arm_rot_l	elbow_flex_l	pro_sup_l
0	0.197429	0.0220883	0.0491517	-0.21294	1.01155	-0.262725	0.253198	-0.0184503	-0.24128	0.146498	-0.0204514	0.0646741	-0.0120134	-0.598797	-0.0492399	-0.341906	0.209981	0.127573	0.471276	-0.00717935	-0.408645	0.102639	-0.100875	-0.0570496	-0.161899	-0.262192	0.536692	1.95627	0.10279	-0.190391	0.00883873	1.08616	2.02031
0.01	0.204706	0.00224108	0.0474934	-0.19494	1.0151	-0.260983	0.247047	0.00191793	-0.238808	0.178198	-0.0420878	0.0414169	-0.0120357	-0.611385	-0.0731357	-0.349496	0.235706	0.090888	0.43917	-0.00723374	-0.409277	0.125599	-0.0942823	-0.0599307	-0.164713	-0.262778	0.531647	1.96051	0.0849703	-0.183824	0.00723865	1.07086	2.0185
0.02	0.210065	-0.0167416	0.0468516	-0.177368	1.01832	-0.259171	0.24157	0.0215416	-0.237233	0.207164	-0.0590996	0.0200234	-0.012058	-0.615932	-0.0979351	-0.353655	0.268521	0.0488384	0.4019	-0.00728812	-0.408463	0.147462	-0.0885444	-0.0627158	-0.166998	-0.264117	0.528245	1.96522	0.0679055	-0.177915	0.0061617	1.0544	2.01633
0.03	0.213479	-0.034846	0.0472358	-0.160237	1.02123	-0.25731	0.236773	0.0404077	-0.236556	0.233324	-0.071505	0.000538131	-0.0120803	-0.61237	-0.123627	-0.354388	0.308418	0.00151242	0.359583	-0.00734251	-0.406182	0.168211	-0.0836757	-0.0653892	-0.168755	-0.266181	0.526479	1.97036	0.0516122	-0.172675	0.00561404	1.0368	2.01383
0.04	0.214892	-0.0520449	0.0486863	-0.143566	1.02386	-0.25542	0.232665	0.0584883	-0.236791	0.256495	-0.0793904	-0.0169433	-0.0121026	-0.600566	-0.15018	-0.351718	0.355311	-0.0507648	0.312618	-0.0073969	-0.402385	0.18781	-0.0797218	-0.0679091	-0.169992	-0.268879	0.526324	1.9758	0.036136	-0.16814	0.00561517	1.0181	2.01103
0.05	0.214269	-0.0683052	0.0512818	-0.127374	1.02622	-0.253522	0.229217	0.0757448	-0.23797	0.276405	-0.0829641	-0.0322972	-0.0121249	-0.580423	-0.177507	-0.345671	0.408899	-0.107259	0.26182	-0.00745129	-0.397033	0.206216	-0.0767605	-0.0702062	-0.170735	-0.272022	0.527717	1.98125	0.0215504	-0.164367	0.00620102	0.998364	2.008
0.06	0.211684	-0.0835865	0.0551234	-0.111675	1.02834	-0.251642	0.226307	0.0921293	-0.240146	0.292779	-0.0825877	-0.0454031	-0.0121472	-0.552076	-0.205401	-0.336252	0.468512	-0.166676	0.20847	-0.00750568	-0.390169	0.223385	-0.0748788	-0.0721931	-0.171036	-0.27532	0.530545	1.98632	0.00794586	-0.161433	0.00742061	0.977731	2.0049
0.07	0.20738	-0.0978206	0.060299	-0.0964764	1.03025	-0.249807	0.223673	0.107581	-0.243376	0.305425	-0.0787768	-0.0561777	-0.0121695	-0.516046	-0.233466	-0.323402	0.533025	-0.227095	0.154214	-0.00756009	-0.381985	0.239273	-0.0741312	-0.0737769	-0.170978	-0.278408	0.534636	1.99056	-0.00458481	-0.159414	0.00932763	0.956372	2.0019
0.08	0.201738	-0.110909	0.0668469	-0.0817735	1.032	-0.248049	0.220945	0.121994	-0.247705	0.314315	-0.0721455	-0.0645557	-0.0121918	-0.473251	-0.261076	-0.307043	0.600941	-0.285979	0.10098	-0.0076145	-0.372827	0.253802	-0.074501	-0.0748676	-0.170674	-0.280897	0.539765	1.99357	-0.0159626	-0.158371	0.0119593	0.934502	1.99925
0.09	0.195226	-0.122723	0.0747069	-0.0675458	1.03363	-0.246387	0.217712	0.135201	-0.253148	0.31962	-0.0633279	-0.0704539	-0.0122141	-0.424927	-0.287395	-0.287178	0.670542	-0.340313	0.0508716	-0.00766891	-0.363152	0.266831	-0.0758682	-0.0753869	-0.170261	-0.282419	0.545673	1.99506	-0.0261403	-0.158322	0.0153074	0.912369	1.99722
0.1	0.188343	-0.133093	0.0836806	-0.0537632	1.03519	-0.244839	0.213581	0.146979	-0.259666	0.321693	-0.0529092	-0.0737487	-0.0122364	-0.372512	-0.311458	-0.263999	0.740066	-0.386897	0.00601973	-0.00772334	-0.353469	0.278161	-0.0779881	-0.0752762	-0.169887	-0.282675	0.552094	1.99492	-0.0351202	-0.159237	0.0192896	0.890252	1.99607
0.11	0.181546	-0.141827	0.0934233	-0.0403854	1.03673	-0.243404	0.20822	0.157081	-0.267144	0.321016	-0.0413827	-0.0742832	-0.0122587	-0.317522	-0.332278	-0.237969	0.807861	-0.422755	-0.0316125	-0.00777777	-0.344277	0.287549	-0.0804942	-0.0745025	-0.169701	-0.28147	0.558777	1.99321	-0.0429664	-0.161026	0.0237323	0.868449	1.99601
0.12	0.175194	-0.148735	0.103465	-0.0273699	1.0383	-0.242073	0.201392	0.16529	-0.275375	0.31813	-0.0291385	-0.0719066	-0.012281	-0.261431	-0.348988	-0.209843	0.872497	-0.445603	-0.0604511	-0.0078322	-0.336014	0.29475	-0.0829257	-0.0730617	-0.169835	-0.278738	0.565521	1.99019	-0.0498089	-0.16355	0.028372	0.847275	1.99721
0.13	0.16952	-0.153677	0.113257	-0.0146715	1.03995	-0.240824	0.192965	0.171464	-0.28406	0.313546	-0.0164799	-0.0665358	-0.0123033	-0.205568	-0.360967	-0.180641	0.932815	-0.454246	-0.0795169	-0.00788665	-0.329004	0.299559	-0.0847751	-0.0709797	-0.17039	-0.274539	0.572181	1.98626	-0.0558402	-0.166635	0.0328755	0.827052	1.99967
0.14	0.164597	-0.156596	0.122242	-0.00224379	1.04169	-0.239626	0.182918	0.175588	-0.292818	0.307697	-0.00365124	-0.0582181	-0.0123257	-0.151034	-0.367939	-0.151561	0.987945	-0.448818	-0.0885736	-0.00794109	-0.323442	0.301858	-0.085545	-0.0683098	-0.17143	-0.269057	0.57868	1.98191	-0.0613021	-0.1701	0.0368781	0.8081	2.00329
0.15	0.160331	-0.157549	0.129924	0.00995889	1.04353	-0.238443	0.171326	0.177796	-0.30121	0.300899	0.00913596	-0.0471721	-0.012348	-0.0986705	-0.370012	-0.123853	1.03729	-0.430787	-0.0881823	-0.00799553	-0.319393	0.301646	-0.0847992	-0.0651243	-0.172972	-0.262565	0.585003	1.97766	-0.0664675	-0.173777	0.0400287	0.790721	2.00781
0.16	0.156585	-0.156703	0.135899	0.0219779	1.04547	-0.237239	0.158357	0.178353	-0.308779	0.293347	0.0216896	-0.0337923	-0.0123703	-0.0490234	-0.367652	-0.0986983	1.08049	-0.402717	-0.0796466	-0.00804996	-0.316774	0.299042	-0.0822057	-0.0615049	-0.174993	-0.255395	0.591185	1.97397	-0.0716141	-0.177533	0.0420332	0.775187	2.01285
0.17	0.153193	-0.154322	0.139883	0.0338534	1.04747	-0.235983	0.144234	0.177617	-0.315086	0.285147	0.033839	-0.0186134	-0.0123926	-0.00238515	-0.361601	-0.0770915	1.11737	-0.367845	-0.064848	-0.00810438	-0.315411	0.294274	-0.0775632	-0.0575319	-0.17744	-0.24789	0.597294	1.97122	-0.0769979	-0.18128	0.042688	0.761714	2.01798
0.18	0.149992	-0.15072	0.141729	0.0456208	1.04952	-0.234646	0.129198	0.175986	-0.319757	0.276353	0.045447	-0.00224587	-0.0124149	0.0411491	-0.352767	-0.0597658	1.14789	-0.329566	-0.0460009	-0.00815879	-0.315085	0.287642	-0.0708036	-0.0532735	-0.180243	-0.240367	0.603413	1.96963	-0.0828309	-0.184979	0.0418956	0.750449	2.02276
0.19	0.146852	-0.146219	0.141422	0.0573124	1.05156	-0.233212	0.113481	0.173837	-0.322513	0.267011	0.0564266	0.0147008	-0.0124373	0.0816161	-0.342091	-0.0471547	1.17215	-0.290954	-0.025372	-0.00821319	-0.315586	0.279486	-0.0619815	-0.0487781	-0.183331	-0.233082	0.60962	1.96925	-0.0892632	-0.188631	0.0396638	0.74145	2.02686
0.2	0.14372	-0.141107	0.139055	0.0689489	1.05357	-0.231673	0.0972877	0.171483	-0.323205	0.257193	0.0667511	0.0316875	-0.0124596	0.119128	-0.330452	-0.0393897	1.19028	-0.2544	-0.00501793	-0.00826758	-0.316725	0.270149	-0.0512563	-0.0440707	-0.186643	-0.226208	0.615978	1.96998	-0.0963739	-0.192262	0.0360891	0.73468	2.03008
0.21	0.140616	-0.135634	0.13481	0.0805434	1.0555	-0.230031	0.080787	0.169136	-0.321834	0.247007	0.0764562	0.0482947	-0.0124819	0.153831	-0.318578	-0.0363276	1.20249	-0.221437	0.0134109	-0.00832197	-0.318355	0.259948	-0.0388739	-0.0391541	-0.190142	-0.21983	0.622522	1.97155	-0.104169	-0.195909	0.0313333	0.730005	2.03238
0.22	0.137585	-0.130001	0.12895	0.0921028	1.05734	-0.228301	0.0641098	0.166907	-0.318547	0.236605	0.0856314	0.0642431	-0.0125042	0.185871	-0.307007	-0.0375949	1.20897	-0.192748	0.0287721	-0.00837637	-0.320382	0.249161	-0.0251452	-0.0340143	-0.193817	-0.213949	0.629255	1.97365	-0.112589	-0.199602	0.0255997	0.727206	2.03388
0.23	0.134687	-0.12435	0.121789	0.103631	1.05905	-0.226503	0.0473582	0.164821	-0.313632	0.226169	0.0944046	0.0793933	-0.0125266	0.215387	-0.296084	-0.0426456	1.20993	-0.168321	0.0404376	-0.00843077	-0.322741	0.23803	-0.0104242	-0.0286265	-0.197677	-0.208505	0.636151	1.97591	-0.121524	-0.20335	0.0191113	0.725997	2.03473
0.24	0.131982	-0.118773	0.113675	0.115125	1.06061	-0.224668	0.0306163	0.162837	-0.307488	0.215887	0.102925	0.0937254	-0.0125489	0.242507	-0.285971	-0.0508252	1.20554	-0.147678	0.0482233	-0.00848518	-0.325382	0.226767	0.00491297	-0.0229635	-0.201752	-0.203393	0.643157	1.97797	-0.130827	-0.207137	0.0120889	0.72605	2.0351
0.25	0.129508	-0.11333	0.104965	0.126584	1.06199	-0.222829	0.0139554	0.160883	-0.300577	0.205935	0.111344	0.107306	-0.0125712	0.26734	-0.276687	-0.0614389	1.19597	-0.130126	0.0522718	-0.00853959	-0.328254	0.215556	0.02049	-0.0170024	-0.206081	-0.198496	0.650203	1.97954	-0.140339	-0.210913	0.00473304	0.727017	2.03508
0.26	0.127272	-0.108064	0.0960006	0.138007	1.06319	-0.221021	-0.00256287	0.158879	-0.293374	0.196456	0.1198	0.120247	-0.0125936	0.289975	-0.268142	-0.0738202	1.1813	-0.114966	0.0529257	-0.008594	-0.331301	0.204558	0.0359547	-0.0107303	-0.210704	-0.1937	0.657209	1.98044	-0.149902	-0.214597	-0.00279092	0.728557	2.03464
